<?xml version="1.0" encoding="utf-8"?>
<!-- Generator: Adobe Illustrator 21.0.0, SVG Export Plug-In . SVG Version: 6.00 Build 0)  -->
<svg version="1.1" id="Layer_1" xmlns="http://www.w3.org/2000/svg" xmlns:xlink="http://www.w3.org/1999/xlink" x="0px" y="0px"
	 viewBox="0 0 612 792" style="enable-background:new 0 0 612 792;" xml:space="preserve">
<style type="text/css">
	.st0{fill:#8C9898;}
	.st1{fill:#113559;}
	.st2{fill:#A71E22;}
</style>
<g>
	<polygon class="st0" points="443.2,426.6 442.9,406 441.1,393.7 430,422.9 434.2,451.1 443.7,463.1 443.2,427.7 	"/>
	<path class="st0" d="M480.2,404.6l-4.3-2.7l-7.1-4.5l-14.6-9.2c0.2-0.3,0.4-0.6,0.5-1c0.2-0.3,0.3-0.7,0.4-1
		c0.1-0.2,0.1-0.5,0.2-0.7l1.5,0.9l13.2,8.2l4.9,3l12.8,7.9l27.7,3.2l8.6-6.5l-33.1-8.6l-7.4-1.9l-12.2-3.2l-15.9-4.1
		c0.1-0.4,0.1-0.7,0.1-1.1c0-0.3,0-0.7,0-1c0,0,0-0.1,0-0.1c0-0.2-0.1-0.5-0.1-0.7l1.6,0.4l14.3,3.6l5.2,1.3l13.4,3.4l22.6-5.7
		l3.9-8.4l-28.4,1.9l-6.6,0.4l-4.2,0.3l-7,0.5l-15,1c-0.1-0.4-0.2-0.8-0.3-1.1c-0.1-0.4-0.3-0.8-0.4-1.1c-0.1-0.2-0.2-0.4-0.3-0.7
		l1.5-0.1l13.5-1l4.8-0.3L486,375l15.4-11.6l-0.1-8.5l-21.2,9.5l-5.2,2.3l-3.3,1.5l-5.6,2.5l-12.4,5.5c-0.2-0.3-0.5-0.7-0.7-1
		c-0.3-0.3-0.5-0.6-0.8-0.9c-0.2-0.2-0.3-0.3-0.5-0.5l1.2-0.6l11.1-5l3.9-1.7l9.5-4.3l8-14.6l-3.1-7.4l-13.5,14l-3.4,3.5l-2.2,2.3
		l-3.8,4l-8.6,8.9c-0.3-0.3-0.6-0.5-1-0.7c-0.4-0.3-0.9-0.6-1.4-0.8c-0.1-0.1-0.2-0.1-0.3-0.2l0.4-0.4l8.2-8.4l2.6-2.7l6.4-6.6
		l1.3-15.2l-5.1-5.8l-6.2,16l-1.6,4.2l-3.6,9.3l-3.6,9.2c-0.5-0.2-0.9-0.4-1.4-0.5c-0.1,0-0.3-0.1-0.4-0.1l-1.6,4.4
		c0.3,0.1,0.6,0.1,0.9,0.2c0,0,0.1,0,0.1,0c0.2,0.1,0.4,0.1,0.5,0.2c0,0,0.1,0,0.1,0c0,0,0.1,0,0.1,0c0.1,0,0.1,0.1,0.2,0.1
		c0.5,0.2,0.9,0.5,1.3,0.8c0.1,0,0.1,0.1,0.2,0.1c0.1,0.1,0.2,0.2,0.3,0.3c0,0,0,0,0.1,0c0,0,0.1,0.1,0.1,0.1c0,0,0.1,0.1,0.1,0.1
		c0.3,0.3,0.7,0.7,0.9,1c0,0.1,0.1,0.1,0.1,0.2c0.1,0.1,0.2,0.3,0.3,0.4c0.1,0.1,0.1,0.2,0.1,0.2c0,0,0,0,0,0c0,0,0,0.1,0.1,0.1
		c0.2,0.4,0.4,0.8,0.5,1.1c0,0.1,0.1,0.2,0.1,0.3c0,0.1,0.1,0.3,0.1,0.4c0,0.1,0,0.2,0.1,0.3c0,0,0,0,0,0c0,0.1,0,0.1,0,0.2
		c0,0.2,0,0.4,0.1,0.5c0,0.2,0,0.4,0,0.5c0,0.1,0,0.2,0,0.3c0,0.1,0,0.3-0.1,0.4c0,0.1,0,0.2-0.1,0.3c0,0,0,0.1,0,0.1
		c0,0.1,0,0.1-0.1,0.2c-0.1,0.3-0.2,0.6-0.3,0.9c0,0.1-0.1,0.2-0.1,0.2c-0.1,0.1-0.1,0.3-0.2,0.4c-0.1,0.1-0.1,0.2-0.2,0.3
		c0,0-0.1,0.1-0.1,0.1c-0.1,0.1-0.1,0.1-0.2,0.2c-0.2,0.2-0.3,0.4-0.5,0.6c-0.1,0.1-0.1,0.1-0.2,0.2c-0.1,0.1-0.2,0.2-0.3,0.3
		c-0.1,0.1-0.2,0.1-0.3,0.2c-0.1,0-0.1,0.1-0.2,0.1c-0.1,0.1-0.2,0.1-0.3,0.2c-0.3,0.2-0.6,0.3-0.9,0.4c0,0,0,0-0.1,0
		c-0.2,0.1-0.5,0.1-0.7,0.2c-0.1,0-0.2,0-0.2,0c-0.1,0-0.3,0-0.4,0.1c-0.3,0-0.6,0-1,0c0,0,0,0-0.1,0c-0.2,0-0.4,0-0.6,0
		c0,0-0.1,0-0.1,0c0,0,0,0-0.1,0c0,0,0,0,0,0c-0.3,0-0.5-0.1-0.8-0.1c-0.3-0.1-0.6-0.2-0.9-0.3c-0.2-0.1-0.5-0.2-0.7-0.3
		c0,0,0,0,0,0h0c-0.1-0.1-0.3-0.1-0.4-0.2c-0.4-0.2-0.8-0.4-1.1-0.7c-0.1-0.1-0.2-0.1-0.3-0.2c-0.1-0.1-0.2-0.2-0.4-0.3
		c0,0,0,0-0.1-0.1c-0.1-0.1-0.2-0.2-0.3-0.3c-0.3-0.3-0.5-0.6-0.8-0.9c-0.1-0.1-0.1-0.2-0.2-0.3c-0.1-0.1-0.2-0.3-0.2-0.4
		c0-0.1-0.1-0.1-0.1-0.2c0-0.1-0.1-0.1-0.1-0.2c0,0,0-0.1,0-0.1c-0.2-0.3-0.3-0.7-0.4-1c0-0.1-0.1-0.2-0.1-0.3c0,0,0-0.1,0-0.1
		l-5.2,0.4c0,0.2,0.1,0.5,0.1,0.7c0.1,0.4,0.2,0.7,0.3,1.1c0.1,0.2,0.2,0.5,0.3,0.7l-1.6,0.1l-12.3,0.8l-4.1,0.3l-10,0.6l-15.5,11
		l-3.2,9.4l20.9-9.3l5.1-2.3l8.9-4l12.5-5.6c0.2,0.3,0.4,0.7,0.6,1c0.2,0.3,0.4,0.7,0.7,1c0.2,0.2,0.3,0.4,0.5,0.6l-1.4,0.6
		l-11.3,5.1l-3.9,1.7l-9.7,4.3l-11.9,17.8l0.1,11.6l18-18.6l4.2-4.4l7.1-7.4l9.7-10c0.3,0.3,0.6,0.6,0.9,0.8
		c0.5,0.4,1.1,0.8,1.7,1.2l-9.8,10.3l-3.1,3.2l-7.8,8.2l-0.3,1.4l-5,22.7l4.6,12.9l8.3-21.2l2.6-6.7l2.4-6.3l9.3-23.9
		c0.9,0.4,1.8,0.8,2.7,1c0.1,0,0.3,0.1,0.4,0.1c0.4,0.1,0.8,0.2,1.3,0.2c0.1,0,0.1,0,0.2,0c0.5,0.1,0.9,0.1,1.4,0.1
		c0.4,0,0.8,0,1.2,0c0.1,0,0.3,0,0.4-0.1l0,0.9l0.3,12.1l0.2,7.7l0.3,13.4l15.2,28.9l13.5,8.7l-14.2-36.4l-3-7.7v0l-4.8-12.3
		l-6-15.5c0.4-0.1,0.8-0.2,1.1-0.3c0.4-0.1,0.7-0.3,1.1-0.5c0.2-0.1,0.5-0.2,0.7-0.3l0.6,1.6l5.7,14l2.1,5.2l5.6,13.9l23.9,22.9
		l14.7,3.2l-26.2-31.2l-5.5-6.6l-8.9-10.5l-2.4-2.9l-8.7-10.4c0.3-0.2,0.6-0.5,0.9-0.7c0.3-0.3,0.6-0.5,0.8-0.8
		c0.2-0.2,0.3-0.4,0.5-0.6l1.2,1.4l10.2,11.9l3.8,4.4l10.1,11.7l28.6,13.7l12.8-2.4l-32.8-20.7L480.2,404.6z"/>
	<path class="st1" d="M132,330.9h-23.4c-6.9,0-10,3.2-10,10.6v25.2c0,7.4,3.1,10.6,10,10.6H132c7.3,0,9.8-2.6,9.8-10.4v-4.4
		c0-0.9-0.5-1.5-1.4-1.5h-8.9c-0.9,0-1.4,0.5-1.4,1.5v2.1c0,1.4-0.6,2.1-2,2.1h-12.9c-3.9,0-4.6-0.7-4.6-4.2v-16.6
		c0-3.6,0.7-4.2,4.6-4.2h12.9c1.4,0,2,0.7,2,2.1v2.1c0,0.9,0.5,1.5,1.4,1.5h8.9c0.9,0,1.4-0.5,1.4-1.5v-4.4
		C141.8,333.5,139.3,330.9,132,330.9"/>
	<path class="st1" d="M193,375.9L181.6,362h0.2c7,0,10-3.8,10-11.3v-9.2c0-7.4-2.9-10.6-10-10.6h-32.5c-0.9,0-1.4,0.5-1.4,1.5v43.5
		c0,0.9,0.5,1.5,1.4,1.5h9.2c0.9,0,1.4-0.5,1.4-1.5v-13.2h8.3l10.3,13.5c0.7,0.9,1.1,1.1,2.3,1.1h11.7
		C193.2,377.3,193.5,376.5,193,375.9 M179.7,348.2c0,3.2-0.5,3.8-4,3.8h-15.7v-10.4h15.7c3.5,0,4,0.6,4,3.8V348.2z"/>
	<path class="st1" d="M242.7,366.7v-25.2c0-7.4-3-10.6-10-10.6h-25.5c-6.9,0-10,3.2-10,10.6v25.2c0,7.4,3.1,10.6,10,10.6h25.5
		C239.7,377.3,242.7,374.1,242.7,366.7 M230.7,362.4c0,3.6-0.7,4.2-4.6,4.2h-12.2c-3.9,0-4.6-0.7-4.6-4.2v-16.6
		c0-3.6,0.7-4.2,4.6-4.2h12.2c3.9,0,4.6,0.7,4.6,4.2V362.4z"/>
	<path class="st1" d="M257.7,377.3h24.7c7,0,10-3.2,10-10.6v-7.3c0-7.4-2.9-10.6-10-10.6h-19.3c-2,0-2.6-0.7-2.6-2.3v-2.6
		c0-1.7,0.6-2.3,2.6-2.3h14.8c1.4,0,2,0.7,2,2.1v0.4c0,0.9,0.5,1.5,1.4,1.5h8.9c0.9,0,1.4-0.5,1.4-1.5v-2.7c0-7.8-2.4-10.4-9.7-10.4
		h-23.4c-7,0-10,3.2-10,10.6v6.9c0,7.4,2.9,10.6,10,10.6h19.3c2,0,2.6,0.7,2.6,2.3v3c0,1.7-0.6,2.3-2.6,2.3h-16.2
		c-1.4,0-1.9-0.7-1.9-2.1v-0.4c0-0.9-0.5-1.5-1.4-1.5h-8.9c-0.9,0-1.4,0.5-1.4,1.5v2.7C248,374.7,250.3,377.3,257.7,377.3"/>
	<path class="st1" d="M331,348.8h-19.3c-2,0-2.6-0.7-2.6-2.3v-2.6c0-1.7,0.6-2.3,2.6-2.3h14.8c1.4,0,2,0.7,2,2.1v0.4
		c0,0.9,0.5,1.5,1.4,1.5h8.9c0.9,0,1.4-0.5,1.4-1.5v-2.7c0-7.8-2.4-10.4-9.7-10.4H307c-7,0-10,3.2-10,10.6v6.9
		c0,7.4,2.9,10.6,10,10.6h19.3c2,0,2.6,0.7,2.6,2.3v3c0,1.7-0.6,2.3-2.6,2.3h-16.2c-1.4,0-1.9-0.7-1.9-2.1v-0.4
		c0-0.9-0.5-1.5-1.4-1.5h-8.9c-0.9,0-1.4,0.5-1.4,1.5v2.7c0,7.8,2.4,10.4,9.7,10.4H331c7,0,10-3.2,10-10.6v-7.3
		C341,352,338.1,348.8,331,348.8"/>
	<path class="st1" d="M382.8,358.6v-7.8c0-0.9-0.5-1.5-1.4-1.5h-2h-20.5v-7.8h20.4h6.7c0.9,0,1.4-0.5,1.4-1.5v-7.8
		c0-0.9-0.5-1.5-1.4-1.5h-6.8h-31c-0.9,0-1.4,0.5-1.4,1.5v43.5c0,0.9,0.5,1.5,1.4,1.5h9.2c0.9,0,1.4-0.5,1.4-1.5V360h20.6h1.9
		C382.2,360,382.8,359.5,382.8,358.6"/>
	<path class="st1" d="M392.3,375.9c0,0.9,0.5,1.5,1.4,1.5h9.2c0.9,0,1.4-0.5,1.4-1.5v-43.5c0-0.9-0.5-1.5-1.4-1.5h-9.2
		c-0.9,0-1.4,0.5-1.4,1.5V375.9z"/>
	<path class="st1" d="M436.6,375.9v-34.3h14.3c0.9,0,1.4-0.5,1.4-1.5v-7.8c0-0.9-0.5-1.5-1.4-1.5h-40.5c-0.9,0-1.4,0.5-1.4,1.5v7.8
		c0,0.9,0.5,1.5,1.4,1.5h14.3v34.3c0,0.9,0.5,1.5,1.4,1.5h9.3C436.1,377.3,436.6,376.8,436.6,375.9"/>
	<polygon class="st2" points="106.8,395.8 113,395.8 113.3,391 118.5,391 118.5,412.4 114.4,412.4 114.4,419 129.7,419 129.7,412.4 
		125.6,412.4 125.6,391 130.7,391 131.2,395.9 137.4,395.9 137.4,384.6 106.8,384.6 	"/>
	<path class="st2" d="M168.9,391.2h4.3V404c0,5.8-2.9,9.4-8.4,9.4c-5.5,0-8.6-3.2-8.6-9.3v-12.9h4.3v-6.6h-14.8v6.6h3.3v12.9
		c0,11.8,7.4,16,15.8,16c8.1,0,15.4-4.4,15.4-16v-12.9h3.4v-6.6h-14.8V391.2z"/>
	<path class="st2" d="M216.2,405.5c5.2-0.5,8.8-3.9,8.8-10.6c0-8.4-6.5-10.3-12.6-10.3h-19.2v6.6h3.8v21.1h-3.5v6.7h14.2v-6.7h-3.3
		v-6.4h4l6.1,7.5v5.6h11.9v-6.7h-4L216.2,405.5z M212.4,399.9h-8.2v-8.7h8.2c2.5,0,5.3,0.9,5.3,4.3
		C217.7,397.7,216.7,399.9,212.4,399.9"/>
	<path class="st2" d="M262.8,401.3c3.2-1.7,4-4.4,4-6.6c0-7.2-5-10.1-12.1-10.1h-18.9v6.5h3.6v21.2h-3.7v6.6h19
		c6.8,0,12.8-1.7,13.1-9.7C267.8,405.5,266.2,402.8,262.8,401.3 M246.6,391.1h8.2c3.4,0,4.8,1.1,4.8,3.4c0,1.6-0.8,3.4-4.9,3.4h-8.1
		V391.1z M254.7,412.4h-8.2v-8h8.1c3,0,5.5,0.8,5.5,4C260.2,412.2,256.7,412.4,254.7,412.4"/>
	<polygon class="st2" points="288.5,391.3 292.4,391.3 292.4,384.6 277.5,384.6 277.5,391.3 281.2,391.3 281.2,412.4 277.3,412.4 
		277.3,419 292.4,419 292.4,412.4 288.5,412.4 	"/>
	<polygon class="st2" points="326,391.3 330,391.3 330,405.6 311.7,384.6 302.4,384.6 302.4,391.3 306.2,391.3 306.2,412.5 
		302.8,412.5 302.8,419 317.3,419 317.3,412.5 313.5,412.5 313.5,397.7 332.3,419 337.1,419 337.1,391.3 340.6,391.3 340.6,384.6 
		326,384.6 	"/>
	<polygon class="st2" points="373.2,412.2 361.2,412.2 361.2,404.8 371.7,404.8 371.7,398.3 361.2,398.3 361.2,391.2 372.6,391.2 
		373,396.2 379.2,396.2 379.2,384.6 350.6,384.6 350.6,391.2 354.2,391.2 354.2,412.4 350.3,412.4 350.3,419 379.9,419 379.9,407.1 
		373.5,407.1 	"/>
</g>
</svg>
